<svg xmlns="http://www.w3.org/2000/svg" width="1400" height="740" viewBox="0 0 1400 740"><rect width="100%" height="100%" fill="#f6f8fa"/><style>text{font-family:Arial,sans-serif;fill:#172e3c}.dim{stroke:#54778a;stroke-width:1;fill:none}.part{stroke:#244c60;stroke-width:1.5;fill:#d8e5e9}</style><text x="35" y="35" font-size="21">gaming-pc-pink / orthographic component bounds / metres</text><text x="65.00" y="80.00" font-size="20">FRONT</text><rect x="333.72" y="389.63" width="86.28" height="165.37" fill="#dde7e6" stroke="#244c60"/><rect x="333.72" y="393.23" width="1.44" height="143.80" fill="#dde7e6" stroke="#244c60"/><rect x="407.78" y="405.81" width="4.31" height="107.85" fill="#dde7e6" stroke="#244c60"/><rect x="349.18" y="478.61" width="57.52" height="19.77" fill="#dde7e6" stroke="#244c60"/><rect x="361.40" y="414.80" width="43.14" height="43.14" fill="#dde7e6" stroke="#244c60"/><rect x="337.68" y="513.66" width="78.37" height="34.15" fill="#dde7e6" stroke="#244c60"/><rect x="65.00" y="389.63" width="221.09" height="131.22" fill="#dde7e6" stroke="#244c60"/><rect x="68.13" y="393.56" width="214.83" height="120.84" fill="#dde7e6" stroke="#244c60"/><rect x="165.66" y="443.56" width="19.77" height="111.44" fill="#dde7e6" stroke="#244c60"/><rect x="127.01" y="546.01" width="97.06" height="8.99" fill="#dde7e6" stroke="#244c60"/><rect x="131.51" y="540.62" width="116.84" height="14.38" fill="#dde7e6" stroke="#244c60"/><rect x="273.33" y="539.54" width="23.73" height="15.46" fill="#dde7e6" stroke="#244c60"/><rect x="355.29" y="486.70" width="43.14" height="43.14" fill="#dde7e6" stroke="#244c60"/><rect x="355.29" y="443.56" width="43.14" height="43.14" fill="#dde7e6" stroke="#244c60"/><rect x="355.29" y="400.42" width="43.14" height="43.14" fill="#dde7e6" stroke="#244c60"/><rect x="355.29" y="400.42" width="43.14" height="43.14" fill="#dde7e6" stroke="#244c60"/><rect x="355.11" y="414.80" width="8.99" height="43.14" fill="#dde7e6" stroke="#244c60"/><text x="65.00" y="590.00" font-size="17">W 0.988 / H 0.460</text><text x="520.00" y="80.00" font-size="20">RIGHT SIDE</text><rect x="632.70" y="295.79" width="242.30" height="259.21" fill="#dde7e6" stroke="#244c60"/><rect x="641.15" y="301.43" width="225.40" height="225.40" fill="#dde7e6" stroke="#244c60"/><rect x="677.78" y="321.15" width="152.14" height="169.05" fill="#dde7e6" stroke="#244c60"/><rect x="674.96" y="435.26" width="163.41" height="30.99" fill="#dde7e6" stroke="#244c60"/><rect x="751.03" y="335.24" width="45.08" height="67.62" fill="#dde7e6" stroke="#244c60"/><rect x="674.96" y="490.20" width="191.59" height="53.53" fill="#dde7e6" stroke="#244c60"/><rect x="791.88" y="295.79" width="25.36" height="205.67" fill="#dde7e6" stroke="#244c60"/><rect x="790.76" y="301.95" width="1.13" height="189.42" fill="#dde7e6" stroke="#244c60"/><rect x="806.25" y="380.32" width="28.17" height="174.68" fill="#dde7e6" stroke="#244c60"/><rect x="742.58" y="540.91" width="118.33" height="14.09" fill="#dde7e6" stroke="#244c60"/><rect x="520.00" y="532.46" width="76.07" height="22.54" fill="#dde7e6" stroke="#244c60"/><rect x="522.82" y="530.77" width="70.44" height="24.23" fill="#dde7e6" stroke="#244c60"/><rect x="642.56" y="447.94" width="14.09" height="67.62" fill="#dde7e6" stroke="#244c60"/><rect x="642.56" y="380.32" width="14.09" height="67.62" fill="#dde7e6" stroke="#244c60"/><rect x="642.56" y="312.70" width="14.09" height="67.62" fill="#dde7e6" stroke="#244c60"/><rect x="853.87" y="312.70" width="14.09" height="67.62" fill="#dde7e6" stroke="#244c60"/><rect x="739.76" y="335.24" width="67.62" height="67.62" fill="#dde7e6" stroke="#244c60"/><text x="520.00" y="590.00" font-size="17">W 0.630 / H 0.460</text><text x="975.00" y="80.00" font-size="20">BACK</text><rect x="975.00" y="389.63" width="86.28" height="165.37" fill="#dde7e6" stroke="#244c60"/><rect x="1059.84" y="393.23" width="1.44" height="143.80" fill="#dde7e6" stroke="#244c60"/><rect x="982.91" y="405.81" width="4.31" height="107.85" fill="#dde7e6" stroke="#244c60"/><rect x="988.30" y="478.61" width="57.52" height="19.77" fill="#dde7e6" stroke="#244c60"/><rect x="990.46" y="414.80" width="43.14" height="43.14" fill="#dde7e6" stroke="#244c60"/><rect x="978.95" y="513.66" width="78.37" height="34.15" fill="#dde7e6" stroke="#244c60"/><rect x="1108.91" y="389.63" width="221.09" height="131.22" fill="#dde7e6" stroke="#244c60"/><rect x="1112.04" y="393.56" width="214.83" height="120.84" fill="#dde7e6" stroke="#244c60"/><rect x="1209.57" y="443.56" width="19.77" height="111.44" fill="#dde7e6" stroke="#244c60"/><rect x="1170.92" y="546.01" width="97.06" height="8.99" fill="#dde7e6" stroke="#244c60"/><rect x="1146.66" y="540.62" width="116.84" height="14.38" fill="#dde7e6" stroke="#244c60"/><rect x="1097.95" y="539.54" width="23.73" height="15.46" fill="#dde7e6" stroke="#244c60"/><rect x="996.57" y="486.70" width="43.14" height="43.14" fill="#dde7e6" stroke="#244c60"/><rect x="996.57" y="443.56" width="43.14" height="43.14" fill="#dde7e6" stroke="#244c60"/><rect x="996.57" y="400.42" width="43.14" height="43.14" fill="#dde7e6" stroke="#244c60"/><rect x="996.57" y="400.42" width="43.14" height="43.14" fill="#dde7e6" stroke="#244c60"/><rect x="1030.90" y="414.80" width="8.99" height="43.14" fill="#dde7e6" stroke="#244c60"/><text x="975.00" y="590.00" font-size="17">W 0.988 / H 0.460</text><text x="65.00" y="640.00" font-size="15">Component bounds, not curved surface silhouettes. Shape / pivots / openings: blueprint.json.</text><text x="65.00" y="674.00" font-size="15">Front = +Z | Right-side camera = +X looking -X | One model/set per folder.</text></svg>