<svg xmlns="http://www.w3.org/2000/svg" width="1250" height="1000" viewBox="0 0 1250 1000"><rect width="100%" height="100%" fill="#f6f8fa"/><style>text{font-family:Arial,sans-serif;fill:#172e3c}.dim{stroke:#54778a;stroke-width:1;fill:none}.part{stroke:#244c60;stroke-width:1.5;fill:#d8e5e9}</style><text x="35" y="35" font-size="21">businesswoman / BODY FIT CONTROL / metres</text><text x="55.00" y="90.00" font-size="19">Numeric control, not the final body silhouette</text><text x="170.00" y="140.00" font-size="20">FRONT</text><polygon points="215.2,294.1600000000001 166.6,307.52500000000003 182.368,340.9375 193.99599999999998,411.475 179.308,452.3125 189.136,531.4 280.86400000000003,531.4 290.692,452.3125 276.004,411.475 287.632,340.9375 303.4,307.52500000000003 254.8,294.1600000000001" fill="#e1e7e2" stroke="#a5b4b8"/><path d="M166.6,805 H303.4 M235,805 V211.0" stroke="#6b8088" fill="none" stroke-dasharray="5 5"/><path d="M145,452.3125 h180" stroke="#597984"/><text x="330.00" y="456.31" font-size="11">HIP</text><path d="M145,411.475 h180" stroke="#597984"/><text x="330.00" y="415.48" font-size="11">WAIST</text><path d="M145,340.9375 h180" stroke="#597984"/><text x="330.00" y="344.94" font-size="11">CHEST</text><path d="M145,307.52500000000003 h180" stroke="#597984"/><text x="330.00" y="311.53" font-size="11">SHOULDER</text><path d="M145,211.0 h180" stroke="#597984"/><text x="330.00" y="215.00" font-size="11">TOP</text><ellipse cx="235" cy="251.46625000000006" rx="27.101249999999997" ry="40.466249999999995" fill="none" stroke="#577682"/><rect x="197.20" y="531.40" width="25.20" height="273.60" fill="#d6ddd9" stroke="#244c60"/><rect x="247.60" y="531.40" width="25.20" height="273.60" fill="#d6ddd9" stroke="#244c60"/><text x="550.00" y="140.00" font-size="20">SIDE</text><polygon points="595.2,294.1600000000001 589.944,307.52500000000003 569.208,340.9375 579.324,411.475 566.544,452.3125 556.95,531.4 673.05,531.4 663.456,452.3125 650.676,411.475 660.792,340.9375 640.056,307.52500000000003 634.8,294.1600000000001" fill="#e1e7e2" stroke="#a5b4b8"/><path d="M569.208,805 H660.792 M615,805 V211.0" stroke="#6b8088" fill="none" stroke-dasharray="5 5"/><path d="M525,452.3125 h180" stroke="#597984"/><text x="710.00" y="456.31" font-size="11">HIP</text><path d="M525,411.475 h180" stroke="#597984"/><text x="710.00" y="415.48" font-size="11">WAIST</text><path d="M525,340.9375 h180" stroke="#597984"/><text x="710.00" y="344.94" font-size="11">CHEST</text><path d="M525,307.52500000000003 h180" stroke="#597984"/><text x="710.00" y="311.53" font-size="11">SHOULDER</text><path d="M525,211.0 h180" stroke="#597984"/><text x="710.00" y="215.00" font-size="11">TOP</text><ellipse cx="615" cy="251.46625000000006" rx="27.101249999999997" ry="40.466249999999995" fill="none" stroke="#577682"/><rect x="595.20" y="531.40" width="39.60" height="273.60" fill="#d6ddd9" stroke="#244c60"/><text x="890.00" y="195.00" font-size="15">Barefoot height 1.650</text><text x="890.00" y="237.00" font-size="15">Shoulders 0.380</text><text x="890.00" y="279.00" font-size="15">Chest / bust 0.860</text><text x="890.00" y="321.00" font-size="15">Waist 0.670</text><text x="890.00" y="363.00" font-size="15">Hip 0.910</text><text x="890.00" y="405.00" font-size="15">Inseam 0.760</text><text x="890.00" y="447.00" font-size="15">Foot length 0.240</text><text x="890.00" y="489.00" font-size="15">Shod height 1.680</text><text x="55.00" y="880.00" font-size="15">Height markers and fitting dimensions. Organic surfaces require sculpting and measurement.</text><text x="55.00" y="920.00" font-size="15">Views share floor Y=0 and crown height. Camera direction is specified in blueprint.json.</text><text x="55.00" y="960.00" font-size="15">Garment finished measurements and motion controls are in blueprint.json / SPEC.md.</text></svg>