<svg xmlns="http://www.w3.org/2000/svg" width="1400" height="740" viewBox="0 0 1400 740"><rect width="100%" height="100%" fill="#f6f8fa"/><style>text{font-family:Arial,sans-serif;fill:#172e3c}.dim{stroke:#54778a;stroke-width:1;fill:none}.part{stroke:#244c60;stroke-width:1.5;fill:#d8e5e9}</style><text x="35" y="35" font-size="21">ceiling-light / orthographic component bounds / metres</text><text x="65.00" y="80.00" font-size="20">FRONT</text><rect x="207.00" y="480.45" width="71.00" height="17.04" fill="#dde7e6" stroke="#244c60"/><rect x="79.20" y="494.65" width="326.60" height="28.40" fill="#dde7e6" stroke="#244c60"/><rect x="65.00" y="518.08" width="355.00" height="28.40" fill="#dde7e6" stroke="#244c60"/><rect x="72.10" y="530.15" width="340.80" height="24.85" fill="#dde7e6" stroke="#244c60"/><text x="65.00" y="590.00" font-size="17">W 0.500 / H 0.105</text><text x="520.00" y="80.00" font-size="20">RIGHT SIDE</text><rect x="662.00" y="480.45" width="71.00" height="17.04" fill="#dde7e6" stroke="#244c60"/><rect x="534.20" y="494.65" width="326.60" height="28.40" fill="#dde7e6" stroke="#244c60"/><rect x="520.00" y="518.08" width="355.00" height="28.40" fill="#dde7e6" stroke="#244c60"/><rect x="527.10" y="530.15" width="340.80" height="24.85" fill="#dde7e6" stroke="#244c60"/><text x="520.00" y="590.00" font-size="17">W 0.500 / H 0.105</text><text x="975.00" y="80.00" font-size="20">BACK</text><rect x="1117.00" y="480.45" width="71.00" height="17.04" fill="#dde7e6" stroke="#244c60"/><rect x="989.20" y="494.65" width="326.60" height="28.40" fill="#dde7e6" stroke="#244c60"/><rect x="975.00" y="518.08" width="355.00" height="28.40" fill="#dde7e6" stroke="#244c60"/><rect x="982.10" y="530.15" width="340.80" height="24.85" fill="#dde7e6" stroke="#244c60"/><text x="975.00" y="590.00" font-size="17">W 0.500 / H 0.105</text><text x="65.00" y="640.00" font-size="15">Component bounds, not curved surface silhouettes. Shape / pivots / openings: blueprint.json.</text><text x="65.00" y="674.00" font-size="15">Front = +Z | Right-side camera = +X looking -X | One model/set per folder.</text></svg>