<svg xmlns="http://www.w3.org/2000/svg" width="1250" height="1000" viewBox="0 0 1250 1000"><rect width="100%" height="100%" fill="#f6f8fa"/><style>text{font-family:Arial,sans-serif;fill:#172e3c}.dim{stroke:#54778a;stroke-width:1;fill:none}.part{stroke:#244c60;stroke-width:1.5;fill:#d8e5e9}</style><text x="35" y="35" font-size="21">passerby-e / BODY FIT CONTROL / metres</text><text x="55.00" y="90.00" font-size="19">Numeric control, not the final body silhouette</text><text x="170.00" y="140.00" font-size="20">FRONT</text><polygon points="215.2,291.06399999999996 159.4,304.51 177.472,338.125 182.368,409.09 176.86,450.175 187.12,540.4 282.88,540.4 293.14,450.175 287.632,409.09 292.528,338.125 310.6,304.51 254.8,291.06399999999996" fill="#e1e7e2" stroke="#a5b4b8"/><path d="M159.4,805 H310.6 M235,805 V207.39999999999998" stroke="#6b8088" fill="none" stroke-dasharray="5 5"/><path d="M145,450.175 h180" stroke="#597984"/><text x="330.00" y="454.18" font-size="11">HIP</text><path d="M145,409.09 h180" stroke="#597984"/><text x="330.00" y="413.09" font-size="11">WAIST</text><path d="M145,338.125 h180" stroke="#597984"/><text x="330.00" y="342.12" font-size="11">CHEST</text><path d="M145,304.51 h180" stroke="#597984"/><text x="330.00" y="308.51" font-size="11">SHOULDER</text><path d="M145,207.39999999999998 h180" stroke="#597984"/><text x="330.00" y="211.40" font-size="11">TOP</text><ellipse cx="235" cy="248.11149999999998" rx="27.265499999999996" ry="40.7115" fill="none" stroke="#577682"/><rect x="197.20" y="540.40" width="25.20" height="264.60" fill="#d6ddd9" stroke="#244c60"/><rect x="247.60" y="540.40" width="25.20" height="264.60" fill="#d6ddd9" stroke="#244c60"/><text x="550.00" y="140.00" font-size="20">SIDE</text><polygon points="595.2,291.06399999999996 589.044,304.51 564.942,338.125 569.208,409.09 564.402,450.175 554.394,540.4 675.606,540.4 665.598,450.175 660.792,409.09 665.058,338.125 640.956,304.51 634.8,291.06399999999996" fill="#e1e7e2" stroke="#a5b4b8"/><path d="M564.942,805 H665.058 M615,805 V207.39999999999998" stroke="#6b8088" fill="none" stroke-dasharray="5 5"/><path d="M525,450.175 h180" stroke="#597984"/><text x="710.00" y="454.18" font-size="11">HIP</text><path d="M525,409.09 h180" stroke="#597984"/><text x="710.00" y="413.09" font-size="11">WAIST</text><path d="M525,338.125 h180" stroke="#597984"/><text x="710.00" y="342.12" font-size="11">CHEST</text><path d="M525,304.51 h180" stroke="#597984"/><text x="710.00" y="308.51" font-size="11">SHOULDER</text><path d="M525,207.39999999999998 h180" stroke="#597984"/><text x="710.00" y="211.40" font-size="11">TOP</text><ellipse cx="615" cy="248.11149999999998" rx="27.265499999999996" ry="40.7115" fill="none" stroke="#577682"/><rect x="595.20" y="540.40" width="39.60" height="264.60" fill="#d6ddd9" stroke="#244c60"/><text x="890.00" y="195.00" font-size="15">Barefoot height 1.660</text><text x="890.00" y="237.00" font-size="15">Shoulders 0.420</text><text x="890.00" y="279.00" font-size="15">Chest / bust 0.940</text><text x="890.00" y="321.00" font-size="15">Waist 0.860</text><text x="890.00" y="363.00" font-size="15">Hip 0.950</text><text x="890.00" y="405.00" font-size="15">Inseam 0.735</text><text x="890.00" y="447.00" font-size="15">Foot length 0.255</text><text x="890.00" y="489.00" font-size="15">Shod height 1.680</text><text x="55.00" y="880.00" font-size="15">Height markers and fitting dimensions. Organic surfaces require sculpting and measurement.</text><text x="55.00" y="920.00" font-size="15">Views share floor Y=0 and crown height. Camera direction is specified in blueprint.json.</text><text x="55.00" y="960.00" font-size="15">Garment finished measurements and motion controls are in blueprint.json / SPEC.md.</text></svg>