<svg xmlns="http://www.w3.org/2000/svg" width="1350" height="930" viewBox="0 0 1350 930"><rect width="100%" height="100%" fill="#f6f8fa"/><style>text{font-family:Arial,sans-serif;fill:#172e3c}.dim{stroke:#54778a;stroke-width:1;fill:none}.part{stroke:#244c60;stroke-width:1.5;fill:#d8e5e9}</style><text x="35" y="35" font-size="21">subway-concourse / PLAN / NORTH at left, EAST below / metres</text><rect x="70.00" y="95.00" width="233.33" height="233.33" fill="#dce8e5" stroke="#244c60"/><text x="182.67" y="215.67" font-size="12">1</text><rect x="291.67" y="167.22" width="23.33" height="88.90" fill="#d8e3ed" stroke="#244c60"/><text x="299.33" y="215.67" font-size="12">2</text><rect x="116.67" y="299.17" width="116.67" height="25.67" fill="#f0e1c5" stroke="#244c60"/><text x="171.00" y="316.00" font-size="12">3</text><rect x="116.67" y="98.50" width="116.67" height="40.83" fill="#d5d7e1" stroke="#244c60"/><text x="171.00" y="122.92" font-size="12">4</text><rect x="315.00" y="95.00" width="875.00" height="233.33" fill="#dce8e5" stroke="#244c60"/><text x="748.50" y="215.67" font-size="12">5</text><rect x="420.00" y="176.67" width="210.00" height="70.00" fill="#d8e3ed" stroke="#244c60"/><text x="521.00" y="215.67" font-size="12">6</text><rect x="863.33" y="176.67" width="210.00" height="70.00" fill="#f0e1c5" stroke="#244c60"/><text x="964.33" y="215.67" font-size="12">7</text><rect x="731.50" y="196.50" width="30.33" height="30.33" fill="#d5d7e1" stroke="#244c60"/><text x="742.67" y="215.67" font-size="12">8</text><rect x="980.00" y="98.50" width="163.33" height="40.83" fill="#dce8e5" stroke="#244c60"/><text x="1057.67" y="122.92" font-size="12">9</text><circle cx="70.0" cy="235.0" r="5" fill="#b34b35"/><circle cx="630.0" cy="211.66666666666666" r="5" fill="#b34b35"/><circle cx="863.3333333333333" cy="211.66666666666666" r="5" fill="#b34b35"/><circle cx="761.8333333333334" cy="211.66666666666666" r="5" fill="#b34b35"/><text x="70.00" y="378.33" font-size="13">1. unpaid  X/Z [-10, -48, 10, -28]</text><text x="680.00" y="378.33" font-size="13">2. gates  X/Z [-3.81, -29, 3.81, -27]</text><text x="70.00" y="410.33" font-size="13">3. ticket-machines  X/Z [7.5, -44, 9.7, -34]</text><text x="680.00" y="410.33" font-size="13">4. staff  X/Z [-9.7, -44, -6.2, -34]</text><text x="70.00" y="442.33" font-size="13">5. paid  X/Z [-10, -27, 10, 48]</text><text x="680.00" y="442.33" font-size="13">6. bank-A  X/Z [-3, -18, 3, 0]</text><text x="70.00" y="474.33" font-size="13">7. bank-B  X/Z [-3, 20, 3, 38]</text><text x="680.00" y="474.33" font-size="13">8. lift  X/Z [-1.3, 8.7, 1.3, 11.3]</text><text x="70.00" y="506.33" font-size="13">9. service  X/Z [-9.7, 30, -6.2, 44]</text><text x="70.00" y="870.00" font-size="13">Red dots = interface floor centers. Teal = platform-door openings. Rectangles = allocation bounds.</text><text x="70.00" y="901.00" font-size="13">Openings, slab cuts, stair modules and ownership are specified in blueprint.json.</text></svg>