<svg xmlns="http://www.w3.org/2000/svg" width="1240" height="560" viewBox="0 0 1240 560"><rect width="100%" height="100%" fill="#f6f8fa"/><style>text{font-family:Arial,sans-serif;fill:#172e3c}.dim{stroke:#54778a;stroke-width:1;fill:none}.part{stroke:#244c60;stroke-width:1.5;fill:#d8e5e9}</style><text x="35" y="35" font-size="21">ROOM / EAST SECTION A-A / x = +1.40 m / looking -X</text><rect x="170.00" y="140.00" width="700.00" height="15.00" fill="#43535b" stroke="#244c60"/><rect x="170.00" y="395.00" width="700.00" height="15.00" fill="#43535b" stroke="#244c60"/><rect x="170.00" y="155.00" width="380.00" height="240.00" fill="#f2eee5" stroke="#244c60"/><rect x="550.00" y="155.00" width="320.00" height="240.00" fill="#e9e7df" stroke="#244c60"/><rect x="550.00" y="155.00" width="10.00" height="40.00" fill="#43535b" stroke="#244c60"/><rect x="727.50" y="195.00" width="65.00" height="200.00" fill="#c5aa82" stroke="#244c60"/><text x="720.00" y="295.00" font-size="12">WASH</text><rect x="870.00" y="185.00" width="4.50" height="215.00" fill="#52616a" stroke="#244c60"/><rect x="166.00" y="185.00" width="4.00" height="210.00" fill="#7b9eac" stroke="#244c60"/><rect x="50.00" y="399.00" width="120.00" height="10.00" fill="#65737b" stroke="#244c60"/><rect x="50.00" y="285.00" width="2.50" height="110.00" fill="#65737b" stroke="#244c60"/><text x="250.00" y="295.00" font-size="19">LIVING / 3.80 m</text><text x="585.00" y="155.00" font-size="18">HALL / 3.20 m</text><text x="170.00" y="435.00" font-size="14">SOUTH +Z</text><text x="770.00" y="435.00" font-size="14">NORTH -Z</text><text x="170.00" y="470.00" font-size="15">Clear ceiling 2.40 m | depth 7.00 m | balcony 1.20 m | north door shown EDGE-ON</text><text x="170.00" y="505.00" font-size="14">West wall hides bath/toilet. Kitchen is east of this cut and removed. No overhead projection.</text></svg>