<svg xmlns="http://www.w3.org/2000/svg" width="1400" height="740" viewBox="0 0 1400 740"><rect width="100%" height="100%" fill="#f6f8fa"/><style>text{font-family:Arial,sans-serif;fill:#172e3c}.dim{stroke:#54778a;stroke-width:1;fill:none}.part{stroke:#244c60;stroke-width:1.5;fill:#d8e5e9}</style><text x="35" y="35" font-size="21">bed / orthographic component bounds / metres</text><text x="65.00" y="80.00" font-size="20">FRONT</text><rect x="65.00" y="279.27" width="355.00" height="230.92" fill="#dde7e6" stroke="#244c60"/><rect x="65.00" y="468.83" width="355.00" height="41.36" fill="#dde7e6" stroke="#244c60"/><rect x="65.00" y="468.83" width="10.34" height="41.36" fill="#dde7e6" stroke="#244c60"/><rect x="409.66" y="468.83" width="10.34" height="41.36" fill="#dde7e6" stroke="#244c60"/><rect x="235.61" y="472.28" width="13.79" height="17.23" fill="#dde7e6" stroke="#244c60"/><rect x="75.34" y="406.80" width="334.32" height="62.04" fill="#dde7e6" stroke="#244c60"/><rect x="139.10" y="365.44" width="206.80" height="41.36" fill="#dde7e6" stroke="#244c60"/><rect x="80.51" y="382.67" width="323.98" height="24.13" fill="#dde7e6" stroke="#244c60"/><rect x="73.62" y="503.30" width="17.23" height="51.70" fill="#dde7e6" stroke="#244c60"/><rect x="73.62" y="503.30" width="17.23" height="51.70" fill="#dde7e6" stroke="#244c60"/><rect x="394.15" y="503.30" width="17.23" height="51.70" fill="#dde7e6" stroke="#244c60"/><rect x="394.15" y="503.30" width="17.23" height="51.70" fill="#dde7e6" stroke="#244c60"/><rect x="80.51" y="468.83" width="323.98" height="6.89" fill="#dde7e6" stroke="#244c60"/><rect x="80.51" y="468.83" width="323.98" height="6.89" fill="#dde7e6" stroke="#244c60"/><rect x="80.51" y="468.83" width="323.98" height="6.89" fill="#dde7e6" stroke="#244c60"/><rect x="80.51" y="468.83" width="323.98" height="6.89" fill="#dde7e6" stroke="#244c60"/><rect x="80.51" y="468.83" width="323.98" height="6.89" fill="#dde7e6" stroke="#244c60"/><rect x="80.51" y="468.83" width="323.98" height="6.89" fill="#dde7e6" stroke="#244c60"/><rect x="80.51" y="468.83" width="323.98" height="6.89" fill="#dde7e6" stroke="#244c60"/><rect x="80.51" y="468.83" width="323.98" height="6.89" fill="#dde7e6" stroke="#244c60"/><rect x="80.51" y="468.83" width="323.98" height="6.89" fill="#dde7e6" stroke="#244c60"/><rect x="80.51" y="468.83" width="323.98" height="6.89" fill="#dde7e6" stroke="#244c60"/><rect x="80.51" y="468.83" width="323.98" height="6.89" fill="#dde7e6" stroke="#244c60"/><rect x="80.51" y="468.83" width="323.98" height="6.89" fill="#dde7e6" stroke="#244c60"/><rect x="80.51" y="468.83" width="323.98" height="6.89" fill="#dde7e6" stroke="#244c60"/><rect x="80.51" y="468.83" width="323.98" height="6.89" fill="#dde7e6" stroke="#244c60"/><rect x="235.61" y="489.51" width="13.79" height="65.49" fill="#dde7e6" stroke="#244c60"/><text x="65.00" y="590.00" font-size="17">W 1.030 / H 0.800</text><text x="520.00" y="80.00" font-size="20">RIGHT SIDE</text><rect x="868.11" y="417.14" width="6.89" height="115.46" fill="#dde7e6" stroke="#244c60"/><rect x="520.00" y="511.92" width="6.89" height="20.68" fill="#dde7e6" stroke="#244c60"/><rect x="526.89" y="511.92" width="341.21" height="20.68" fill="#dde7e6" stroke="#244c60"/><rect x="526.89" y="511.92" width="341.21" height="20.68" fill="#dde7e6" stroke="#244c60"/><rect x="530.34" y="513.64" width="334.32" height="8.62" fill="#dde7e6" stroke="#244c60"/><rect x="529.48" y="480.90" width="336.04" height="31.02" fill="#dde7e6" stroke="#244c60"/><rect x="776.77" y="460.22" width="65.49" height="20.68" fill="#dde7e6" stroke="#244c60"/><rect x="538.09" y="468.83" width="94.78" height="12.06" fill="#dde7e6" stroke="#244c60"/><rect x="857.77" y="529.15" width="8.62" height="25.85" fill="#dde7e6" stroke="#244c60"/><rect x="528.62" y="529.15" width="8.62" height="25.85" fill="#dde7e6" stroke="#244c60"/><rect x="857.77" y="529.15" width="8.62" height="25.85" fill="#dde7e6" stroke="#244c60"/><rect x="528.62" y="529.15" width="8.62" height="25.85" fill="#dde7e6" stroke="#244c60"/><rect x="848.29" y="511.92" width="12.06" height="3.45" fill="#dde7e6" stroke="#244c60"/><rect x="824.16" y="511.92" width="12.06" height="3.45" fill="#dde7e6" stroke="#244c60"/><rect x="800.04" y="511.92" width="12.06" height="3.45" fill="#dde7e6" stroke="#244c60"/><rect x="775.91" y="511.92" width="12.06" height="3.45" fill="#dde7e6" stroke="#244c60"/><rect x="751.78" y="511.92" width="12.06" height="3.45" fill="#dde7e6" stroke="#244c60"/><rect x="727.66" y="511.92" width="12.06" height="3.45" fill="#dde7e6" stroke="#244c60"/><rect x="703.53" y="511.92" width="12.06" height="3.45" fill="#dde7e6" stroke="#244c60"/><rect x="679.41" y="511.92" width="12.06" height="3.45" fill="#dde7e6" stroke="#244c60"/><rect x="655.28" y="511.92" width="12.06" height="3.45" fill="#dde7e6" stroke="#244c60"/><rect x="631.15" y="511.92" width="12.06" height="3.45" fill="#dde7e6" stroke="#244c60"/><rect x="607.03" y="511.92" width="12.06" height="3.45" fill="#dde7e6" stroke="#244c60"/><rect x="582.90" y="511.92" width="12.06" height="3.45" fill="#dde7e6" stroke="#244c60"/><rect x="558.77" y="511.92" width="12.06" height="3.45" fill="#dde7e6" stroke="#244c60"/><rect x="534.65" y="511.92" width="12.06" height="3.45" fill="#dde7e6" stroke="#244c60"/><rect x="694.05" y="522.26" width="6.89" height="32.74" fill="#dde7e6" stroke="#244c60"/><text x="520.00" y="590.00" font-size="17">W 2.060 / H 0.800</text><text x="975.00" y="80.00" font-size="20">BACK</text><rect x="975.00" y="279.27" width="355.00" height="230.92" fill="#dde7e6" stroke="#244c60"/><rect x="975.00" y="468.83" width="355.00" height="41.36" fill="#dde7e6" stroke="#244c60"/><rect x="1319.66" y="468.83" width="10.34" height="41.36" fill="#dde7e6" stroke="#244c60"/><rect x="975.00" y="468.83" width="10.34" height="41.36" fill="#dde7e6" stroke="#244c60"/><rect x="1145.61" y="472.28" width="13.79" height="17.23" fill="#dde7e6" stroke="#244c60"/><rect x="985.34" y="406.80" width="334.32" height="62.04" fill="#dde7e6" stroke="#244c60"/><rect x="1049.10" y="365.44" width="206.80" height="41.36" fill="#dde7e6" stroke="#244c60"/><rect x="990.51" y="382.67" width="323.98" height="24.13" fill="#dde7e6" stroke="#244c60"/><rect x="1304.15" y="503.30" width="17.23" height="51.70" fill="#dde7e6" stroke="#244c60"/><rect x="1304.15" y="503.30" width="17.23" height="51.70" fill="#dde7e6" stroke="#244c60"/><rect x="983.62" y="503.30" width="17.23" height="51.70" fill="#dde7e6" stroke="#244c60"/><rect x="983.62" y="503.30" width="17.23" height="51.70" fill="#dde7e6" stroke="#244c60"/><rect x="990.51" y="468.83" width="323.98" height="6.89" fill="#dde7e6" stroke="#244c60"/><rect x="990.51" y="468.83" width="323.98" height="6.89" fill="#dde7e6" stroke="#244c60"/><rect x="990.51" y="468.83" width="323.98" height="6.89" fill="#dde7e6" stroke="#244c60"/><rect x="990.51" y="468.83" width="323.98" height="6.89" fill="#dde7e6" stroke="#244c60"/><rect x="990.51" y="468.83" width="323.98" height="6.89" fill="#dde7e6" stroke="#244c60"/><rect x="990.51" y="468.83" width="323.98" height="6.89" fill="#dde7e6" stroke="#244c60"/><rect x="990.51" y="468.83" width="323.98" height="6.89" fill="#dde7e6" stroke="#244c60"/><rect x="990.51" y="468.83" width="323.98" height="6.89" fill="#dde7e6" stroke="#244c60"/><rect x="990.51" y="468.83" width="323.98" height="6.89" fill="#dde7e6" stroke="#244c60"/><rect x="990.51" y="468.83" width="323.98" height="6.89" fill="#dde7e6" stroke="#244c60"/><rect x="990.51" y="468.83" width="323.98" height="6.89" fill="#dde7e6" stroke="#244c60"/><rect x="990.51" y="468.83" width="323.98" height="6.89" fill="#dde7e6" stroke="#244c60"/><rect x="990.51" y="468.83" width="323.98" height="6.89" fill="#dde7e6" stroke="#244c60"/><rect x="990.51" y="468.83" width="323.98" height="6.89" fill="#dde7e6" stroke="#244c60"/><rect x="1145.61" y="489.51" width="13.79" height="65.49" fill="#dde7e6" stroke="#244c60"/><text x="975.00" y="590.00" font-size="17">W 1.030 / H 0.800</text><text x="65.00" y="640.00" font-size="15">Component bounds, not curved surface silhouettes. Shape / pivots / openings: blueprint.json.</text><text x="65.00" y="674.00" font-size="15">Front = +Z | Right-side camera = +X looking -X | One model/set per folder.</text></svg>