<svg xmlns="http://www.w3.org/2000/svg" width="1400" height="740" viewBox="0 0 1400 740"><rect width="100%" height="100%" fill="#f6f8fa"/><style>text{font-family:Arial,sans-serif;fill:#172e3c}.dim{stroke:#54778a;stroke-width:1;fill:none}.part{stroke:#244c60;stroke-width:1.5;fill:#d8e5e9}</style><text x="35" y="35" font-size="21">pc-set / orthographic component bounds / metres</text><text x="65.00" y="80.00" font-size="20">FRONT</text><rect x="348.20" y="415.39" width="71.80" height="139.61" fill="#dde7e6" stroke="#244c60"/><rect x="65.00" y="395.45" width="215.39" height="129.24" fill="#dde7e6" stroke="#244c60"/><rect x="163.72" y="463.26" width="17.95" height="91.74" fill="#dde7e6" stroke="#244c60"/><rect x="126.83" y="545.43" width="91.74" height="9.57" fill="#dde7e6" stroke="#244c60"/><rect x="96.91" y="542.24" width="175.51" height="12.76" fill="#dde7e6" stroke="#244c60"/><rect x="275.41" y="539.04" width="25.93" height="15.96" fill="#dde7e6" stroke="#244c60"/><text x="65.00" y="590.00" font-size="17">W 0.890 / H 0.400</text><text x="520.00" y="80.00" font-size="20">RIGHT SIDE</text><rect x="633.60" y="306.50" width="241.40" height="248.50" fill="#dde7e6" stroke="#244c60"/><rect x="818.91" y="271.00" width="26.98" height="230.04" fill="#dde7e6" stroke="#244c60"/><rect x="816.43" y="391.70" width="31.95" height="163.30" fill="#dde7e6" stroke="#244c60"/><rect x="747.20" y="537.96" width="127.80" height="17.04" fill="#dde7e6" stroke="#244c60"/><rect x="520.00" y="532.28" width="99.40" height="22.72" fill="#dde7e6" stroke="#244c60"/><rect x="528.88" y="526.60" width="81.65" height="28.40" fill="#dde7e6" stroke="#244c60"/><text x="520.00" y="590.00" font-size="17">W 0.500 / H 0.400</text><text x="975.00" y="80.00" font-size="20">BACK</text><rect x="975.00" y="415.39" width="71.80" height="139.61" fill="#dde7e6" stroke="#244c60"/><rect x="1114.61" y="395.45" width="215.39" height="129.24" fill="#dde7e6" stroke="#244c60"/><rect x="1213.33" y="463.26" width="17.95" height="91.74" fill="#dde7e6" stroke="#244c60"/><rect x="1176.43" y="545.43" width="91.74" height="9.57" fill="#dde7e6" stroke="#244c60"/><rect x="1122.58" y="542.24" width="175.51" height="12.76" fill="#dde7e6" stroke="#244c60"/><rect x="1093.67" y="539.04" width="25.93" height="15.96" fill="#dde7e6" stroke="#244c60"/><text x="975.00" y="590.00" font-size="17">W 0.890 / H 0.400</text><text x="65.00" y="640.00" font-size="15">Component bounds, not curved surface silhouettes. Shape / pivots / openings: blueprint.json.</text><text x="65.00" y="674.00" font-size="15">Front = +Z | Right-side camera = +X looking -X | One model/set per folder.</text></svg>